# xmcd CD database file
#
# Track frame offsets:
#	150
#	24555
#	46955
#	80870
#
# Disc length: 1561 seconds
#
# Revision: 1
# Processed by: cddbd v1.5.2PL0 Copyright (c) Steve Scherf et al.
# Submitted via: CDex 1.70beta2
#
DISCID=2c061704
DTITLE=レミオロメン - 粉雪
DYEAR=2005
DGENRE=Rock
TTITLE0=粉雪
TTITLE1=No Border
TTITLE2=3／9 with Quartet
TTITLE3=データ
EXTD=YEAR: 2005
EXTT0=
EXTT1=
EXTT2=
EXTT3=
PLAYORDER=
